<svg xmlns="http://www.w3.org/2000/svg" xmlns:xlink="http://www.w3.org/1999/xlink" width="1080" zoomAndPan="magnify" viewBox="0 0 810 809.999993" height="1080" preserveAspectRatio="xMidYMid meet" version="1.0"><defs><clipPath id="4327efa3fc"><path d="M 50.597656 15.21875 L 759.347656 15.21875 L 759.347656 794.46875 L 50.597656 794.46875 Z M 50.597656 15.21875 " clip-rule="nonzero"/></clipPath><clipPath id="a8285b8c71"><path d="M 50.597656 15.21875 L 759.347656 15.21875 L 759.347656 640 L 50.597656 640 Z M 50.597656 15.21875 " clip-rule="nonzero"/></clipPath></defs><g clip-path="url(#4327efa3fc)"><path fill="#d66364" d="M 736.296875 312.953125 L 672.980469 312.953125 C 669.542969 312.953125 666.296875 313.742188 663.367188 315.117188 C 655.714844 274.535156 638.738281 237.25 614.738281 205.566406 L 638.8125 205.566406 C 650.285156 205.566406 659.585938 196.265625 659.585938 184.796875 L 659.585938 130.699219 L 668.890625 130.699219 L 668.890625 127.980469 C 668.890625 114.960938 658.5625 104.410156 645.824219 104.410156 L 582.507812 104.410156 C 569.765625 104.410156 559.441406 114.964844 559.441406 127.980469 L 559.441406 130.699219 L 568.742188 130.699219 L 568.742188 158.433594 C 534.515625 131.164062 493.332031 112.257812 448.273438 104.796875 C 449.625 102.042969 450.402344 98.957031 450.402344 95.683594 L 450.402344 41.585938 L 459.707031 41.585938 L 459.707031 38.867188 C 459.707031 25.847656 449.378906 15.296875 436.640625 15.296875 L 373.320312 15.296875 C 360.582031 15.296875 350.257812 25.847656 350.257812 38.867188 L 350.257812 41.585938 L 359.558594 41.585938 L 359.558594 95.683594 C 359.558594 98.957031 360.339844 102.039062 361.6875 104.796875 C 316.714844 112.242188 275.59375 131.09375 241.40625 158.285156 L 241.40625 131.003906 L 250.707031 131.003906 L 250.707031 128.285156 C 250.707031 115.265625 240.382812 104.714844 227.640625 104.714844 L 164.324219 104.714844 C 151.585938 104.714844 141.257812 115.265625 141.257812 128.285156 L 141.257812 131.003906 L 150.558594 131.003906 L 150.558594 185.101562 C 150.558594 196.570312 159.863281 205.867188 171.335938 205.867188 L 194.992188 205.867188 C 171.113281 237.484375 154.226562 274.667969 146.597656 315.121094 C 143.667969 313.742188 140.417969 312.953125 136.984375 312.953125 L 73.664062 312.953125 C 60.925781 312.953125 50.597656 323.507812 50.597656 336.523438 L 50.597656 339.242188 L 59.902344 339.242188 L 59.902344 393.339844 C 59.902344 404.808594 69.203125 414.109375 80.675781 414.109375 L 129.972656 414.109375 C 136.175781 414.109375 141.730469 411.375 145.535156 407.0625 C 153.441406 455.125 174.378906 498.792969 204.613281 534.324219 L 148.808594 534.324219 C 136.070312 534.324219 125.746094 544.875 125.746094 557.894531 L 125.746094 560.613281 L 135.046875 560.613281 L 135.046875 614.710938 C 135.046875 626.179688 144.347656 635.476562 155.824219 635.476562 L 205.117188 635.476562 C 216.589844 635.476562 225.890625 626.179688 225.890625 614.710938 L 225.890625 560.613281 L 230.339844 560.613281 C 236.597656 566.171875 243.121094 571.441406 249.890625 576.390625 L 199.441406 738.261719 L 200.410156 738.679688 L 164.007812 738.679688 C 144.835938 738.679688 129.296875 754.214844 129.296875 773.378906 L 129.296875 794.339844 L 680.667969 794.339844 L 680.667969 773.378906 C 680.667969 754.214844 665.125 738.679688 645.957031 738.679688 L 609.796875 738.679688 L 610.765625 738.261719 L 560.269531 576.25 C 567.089844 571.25 573.664062 565.929688 579.964844 560.308594 L 584.257812 560.308594 L 584.257812 614.410156 C 584.257812 625.878906 593.558594 635.175781 605.03125 635.175781 L 654.328125 635.175781 C 665.800781 635.175781 675.101562 625.878906 675.101562 614.410156 L 675.101562 560.308594 L 684.402344 560.308594 L 684.402344 557.589844 C 684.402344 544.574219 674.078125 534.023438 661.339844 534.023438 L 605.609375 534.023438 C 635.703125 498.546875 656.546875 454.992188 664.429688 407.066406 C 668.234375 411.375 673.789062 414.109375 679.992188 414.109375 L 729.289062 414.109375 C 740.761719 414.109375 750.0625 404.8125 750.0625 393.339844 L 750.0625 339.242188 L 759.363281 339.242188 L 759.363281 336.523438 C 759.363281 323.507812 749.039062 312.953125 736.296875 312.953125 Z M 410.976562 116.449219 L 426.269531 116.449219 C 480.585938 121.078125 529.976562 143.226562 568.746094 177.21875 L 568.746094 184.796875 C 568.746094 186.953125 569.074219 189.03125 569.683594 190.984375 L 530.910156 229.746094 C 499.300781 200.117188 457.269531 181.480469 410.976562 179.996094 Z M 493.351562 358.113281 C 492.441406 337.953125 484.742188 319.539062 472.5 305.082031 L 529.269531 248.328125 C 556.320312 277.332031 573.363281 315.777344 574.839844 358.113281 Z M 574.835938 370.09375 C 573.375 412.054688 556.625 450.191406 529.992188 479.101562 L 496.015625 370.09375 Z M 410.976562 194.304688 C 453.324219 195.777344 491.78125 212.8125 520.792969 239.859375 L 464.164062 296.46875 C 449.867188 283.582031 431.355469 275.300781 410.976562 273.929688 Z M 410.976562 450.367188 C 430.375 449.0625 448.074219 441.484375 462.066406 429.644531 L 476.125 443.699219 L 496.019531 507.535156 C 471.265625 523.292969 442.175781 532.820312 410.976562 533.90625 Z M 410.976562 548.214844 C 443.628906 547.167969 474.164062 537.59375 500.417969 521.644531 L 519.992188 584.4375 C 487.238281 601.59375 450.222656 611.671875 410.976562 612.605469 Z M 241.40625 185.101562 L 241.40625 177.054688 C 280.144531 143.15625 329.460938 121.070312 383.691406 116.449219 L 398.988281 116.449219 L 398.988281 179.992188 C 352.695312 181.480469 310.664062 200.117188 279.050781 229.742188 L 240.488281 191.191406 C 241.082031 189.265625 241.40625 187.222656 241.40625 185.101562 Z M 314.1875 370.09375 L 280.152344 479.296875 C 253.414062 450.363281 236.59375 412.148438 235.125 370.09375 Z M 235.125 358.113281 C 236.601562 315.777344 253.640625 277.332031 280.695312 248.332031 L 337.464844 305.082031 C 325.21875 319.539062 317.523438 337.953125 316.613281 358.113281 Z M 309.75 521.765625 C 335.957031 537.644531 366.417969 547.171875 398.988281 548.214844 L 398.988281 612.601562 C 359.824219 611.671875 322.882812 601.636719 290.179688 584.546875 Z M 314.144531 507.660156 L 334.191406 443.34375 L 347.898438 429.644531 C 361.886719 441.488281 379.589844 449.0625 398.988281 450.367188 L 398.988281 533.90625 C 367.875 532.820312 338.859375 523.339844 314.144531 507.660156 Z M 345.800781 296.46875 L 289.171875 239.859375 C 318.183594 212.8125 356.636719 195.78125 398.988281 194.304688 L 398.988281 273.929688 C 378.609375 275.300781 360.097656 283.582031 345.800781 296.46875 Z M 157.566406 339.242188 L 160.050781 339.242188 L 160.050781 336.523438 C 160.050781 333.882812 159.605469 331.351562 158.820312 328.980469 C 165.40625 282.625 184.816406 240.34375 213.355469 205.867188 L 220.628906 205.867188 C 225.554688 205.867188 230.070312 204.144531 233.632812 201.28125 L 270.578125 238.214844 C 240.941406 269.816406 222.296875 311.835938 220.8125 358.113281 L 156.402344 358.113281 C 156.554688 351.761719 156.945312 345.46875 157.566406 339.242188 Z M 225.050781 535.503906 C 183.773438 492.21875 157.925781 434.113281 156.402344 370.09375 L 220.8125 370.09375 C 222.296875 416.375 240.941406 458.390625 270.578125 489.992188 Z M 233.527344 543.976562 L 271.972656 505.542969 L 254.4375 561.800781 C 247.144531 556.238281 240.15625 550.296875 233.527344 543.976562 Z M 568.066406 738.679688 L 242.140625 738.679688 L 285.832031 598.5 C 307.378906 609.46875 330.640625 617.539062 355.105469 622.238281 C 352.078125 626.222656 350.257812 631.21875 350.257812 636.65625 L 350.257812 639.375 L 359.558594 639.375 L 359.558594 693.472656 C 359.558594 704.945312 368.859375 714.242188 380.335938 714.242188 L 429.628906 714.242188 C 441.101562 714.242188 450.402344 704.945312 450.402344 693.472656 L 450.402344 639.375 L 459.707031 639.375 L 459.707031 636.65625 C 459.707031 631.21875 457.886719 626.226562 454.859375 622.238281 C 479.402344 617.527344 502.738281 609.417969 524.339844 598.398438 Z M 555.71875 561.652344 L 538.339844 505.894531 L 576.4375 543.976562 C 569.867188 550.238281 562.941406 556.132812 555.71875 561.652344 Z M 584.914062 535.503906 L 539.386719 489.992188 C 569.023438 458.390625 587.664062 416.375 589.152344 370.09375 L 653.5625 370.09375 C 652.039062 434.113281 626.1875 492.21875 584.914062 535.503906 Z M 589.152344 358.113281 C 587.664062 311.835938 569.023438 269.816406 539.386719 238.214844 L 576.582031 201.03125 C 580.132812 203.863281 584.625 205.566406 589.519531 205.566406 L 596.351562 205.566406 C 625.027344 240.097656 644.539062 282.488281 651.144531 328.980469 C 650.359375 331.351562 649.914062 333.882812 649.914062 336.523438 L 649.914062 339.242188 L 652.398438 339.242188 C 653.019531 345.46875 653.410156 351.761719 653.5625 358.113281 Z M 589.152344 358.113281 " fill-opacity="1" fill-rule="nonzero"/></g><path fill="#a6e1d8" d="M 469.53125 422.542969 L 476.125 443.695312 L 462.066406 429.640625 C 464.691406 427.421875 467.179688 425.050781 469.53125 422.542969 Z M 340.617188 422.734375 L 334.191406 443.34375 L 347.898438 429.644531 C 345.339844 427.476562 342.910156 425.171875 340.617188 422.734375 Z M 225.050781 535.503906 L 223.285156 537.269531 C 226.804688 539.261719 229.742188 542.171875 231.828125 545.675781 L 233.527344 543.976562 L 271.976562 505.542969 L 279.648438 480.925781 L 270.582031 489.992188 Z M 653.5625 358.113281 L 493.351562 358.113281 C 493.410156 359.453125 493.453125 360.792969 493.453125 362.148438 C 493.453125 362.160156 493.453125 362.171875 493.453125 362.183594 L 493.539062 362.148438 L 496.015625 370.09375 L 659.214844 370.09375 L 659.214844 358.113281 Z M 235.125 358.113281 L 150.746094 358.113281 L 150.746094 370.09375 L 314.1875 370.09375 L 316.519531 362.613281 C 316.519531 362.457031 316.507812 362.304688 316.507812 362.148438 C 316.507812 360.792969 316.550781 359.453125 316.609375 358.113281 Z M 472.5 305.082031 L 529.269531 248.332031 L 539.386719 238.214844 L 576.585938 201.03125 C 573.375 198.472656 570.933594 194.996094 569.683594 190.984375 L 530.914062 229.742188 L 520.792969 239.859375 L 464.164062 296.46875 C 467.132812 299.144531 469.914062 302.03125 472.5 305.082031 Z M 280.695312 248.332031 L 337.464844 305.082031 C 340.050781 302.03125 342.832031 299.148438 345.800781 296.46875 L 289.171875 239.859375 L 279.054688 229.746094 L 240.492188 191.195312 C 239.257812 195.214844 236.832031 198.710938 233.632812 201.285156 L 270.578125 238.21875 Z M 539.386719 489.992188 L 530.671875 481.277344 L 538.34375 505.894531 L 576.4375 543.976562 L 578.140625 545.679688 C 580.175781 542.140625 583.078125 539.195312 586.5625 537.152344 L 584.910156 535.503906 Z M 398.988281 179.992188 L 398.988281 273.929688 C 400.972656 273.796875 402.964844 273.703125 404.980469 273.703125 C 406.996094 273.703125 408.992188 273.796875 410.976562 273.929688 L 410.976562 116.449219 L 398.988281 116.449219 Z M 398.988281 450.367188 L 398.988281 613.085938 L 410.976562 613.085938 L 410.976562 450.367188 C 408.992188 450.5 406.996094 450.589844 404.980469 450.589844 C 402.964844 450.59375 400.972656 450.5 398.988281 450.367188 Z M 398.988281 450.367188 " fill-opacity="1" fill-rule="nonzero"/><path fill="#2a60a0" d="M 371.140625 41.585938 L 438.820312 41.585938 L 438.820312 87.25 L 371.140625 87.25 Z M 371.140625 685.039062 L 438.820312 685.039062 L 438.820312 639.375 L 371.140625 639.375 Z M 71.484375 384.90625 L 139.164062 384.90625 L 139.164062 339.242188 L 71.484375 339.242188 Z M 670.800781 339.242188 L 670.800781 384.90625 L 738.476562 384.90625 L 738.476562 339.242188 Z M 648.003906 130.699219 L 580.328125 130.699219 L 580.328125 176.363281 L 648.003906 176.363281 Z M 595.839844 605.972656 L 663.519531 605.972656 L 663.519531 560.308594 L 595.839844 560.308594 Z M 162.144531 176.664062 L 229.820312 176.664062 L 229.820312 131 L 162.144531 131 Z M 146.628906 606.277344 L 214.308594 606.277344 L 214.308594 560.613281 L 146.628906 560.613281 Z M 146.628906 606.277344 " fill-opacity="1" fill-rule="nonzero"/><g clip-path="url(#a8285b8c71)"><path fill="#ffecd7" d="M 459.707031 38.867188 L 459.707031 41.585938 L 350.257812 41.585938 L 350.257812 38.867188 C 350.257812 25.847656 360.582031 15.296875 373.324219 15.296875 L 436.640625 15.296875 C 449.378906 15.296875 459.707031 25.847656 459.707031 38.867188 Z M 436.640625 613.089844 L 373.324219 613.089844 C 365.90625 613.089844 359.324219 616.679688 355.105469 622.238281 C 352.078125 626.226562 350.257812 631.21875 350.257812 636.660156 L 350.257812 639.378906 L 459.707031 639.378906 L 459.707031 636.660156 C 459.707031 631.21875 457.882812 626.226562 454.855469 622.238281 C 450.640625 616.679688 444.058594 613.089844 436.640625 613.089844 Z M 150.746094 339.242188 L 160.050781 339.242188 L 160.050781 336.523438 C 160.050781 333.882812 159.605469 331.351562 158.820312 328.980469 C 156.78125 322.816406 152.324219 317.808594 146.597656 315.117188 C 143.667969 313.742188 140.421875 312.953125 136.984375 312.953125 L 73.664062 312.953125 C 60.925781 312.953125 50.597656 323.507812 50.597656 336.523438 L 50.597656 339.242188 Z M 736.296875 312.953125 L 672.980469 312.953125 C 669.542969 312.953125 666.296875 313.742188 663.367188 315.117188 C 657.636719 317.808594 653.179688 322.816406 651.144531 328.980469 C 650.359375 331.351562 649.914062 333.882812 649.914062 336.523438 L 649.914062 339.242188 L 759.363281 339.242188 L 759.363281 336.523438 C 759.363281 323.507812 749.039062 312.953125 736.296875 312.953125 Z M 648.003906 130.699219 L 668.890625 130.699219 L 668.890625 127.980469 C 668.890625 114.960938 658.5625 104.410156 645.824219 104.410156 L 582.507812 104.410156 C 569.765625 104.410156 559.441406 114.964844 559.441406 127.980469 L 559.441406 130.699219 Z M 661.339844 534.023438 L 598.019531 534.023438 C 593.84375 534.023438 589.941406 535.171875 586.5625 537.152344 C 583.078125 539.199219 580.175781 542.140625 578.140625 545.679688 C 576.128906 549.179688 574.957031 553.242188 574.957031 557.59375 L 574.957031 560.3125 L 684.40625 560.3125 L 684.40625 557.59375 C 684.402344 544.574219 674.078125 534.023438 661.339844 534.023438 Z M 227.640625 104.714844 L 164.324219 104.714844 C 151.585938 104.714844 141.257812 115.265625 141.257812 128.285156 L 141.257812 131.003906 L 250.707031 131.003906 L 250.707031 128.285156 C 250.707031 115.265625 240.382812 104.714844 227.640625 104.714844 Z M 223.285156 537.269531 C 219.976562 535.398438 216.175781 534.324219 212.128906 534.324219 L 148.808594 534.324219 C 136.070312 534.324219 125.746094 544.875 125.746094 557.894531 L 125.746094 560.613281 L 235.195312 560.613281 L 235.195312 557.894531 C 235.195312 553.414062 233.949219 549.242188 231.828125 545.675781 C 229.742188 542.171875 226.804688 539.261719 223.285156 537.269531 Z M 223.285156 537.269531 " fill-opacity="1" fill-rule="nonzero"/></g><path fill="#f9e698" d="M 574.953125 560.308594 L 579.964844 560.308594 C 573.664062 565.929688 567.09375 571.25 560.269531 576.25 L 555.71875 561.652344 C 562.941406 556.132812 569.867188 550.238281 576.4375 543.976562 L 578.140625 545.679688 C 576.125 549.175781 574.953125 553.238281 574.953125 557.589844 Z M 380.335938 116.449219 C 372.136719 116.449219 365.066406 111.691406 361.6875 104.796875 C 316.714844 112.242188 275.59375 131.09375 241.40625 158.285156 L 241.40625 177.054688 C 280.144531 143.15625 329.460938 121.070312 383.691406 116.449219 C 383.691406 116.449219 380.335938 116.449219 380.335938 116.449219 Z M 663.367188 315.117188 C 655.714844 274.535156 638.738281 237.25 614.738281 205.566406 L 596.351562 205.566406 C 625.027344 240.097656 644.535156 282.488281 651.144531 328.980469 C 653.183594 322.816406 657.636719 317.808594 663.367188 315.117188 Z M 659.21875 393.339844 L 659.21875 370.09375 L 653.5625 370.09375 C 652.039062 434.113281 626.1875 492.21875 584.910156 535.503906 L 586.5625 537.152344 C 589.941406 535.171875 593.84375 534.019531 598.019531 534.019531 L 605.609375 534.019531 C 635.703125 498.546875 656.546875 454.992188 664.425781 407.0625 C 661.195312 403.402344 659.21875 398.609375 659.21875 393.339844 Z M 653.5625 358.113281 L 659.21875 358.113281 L 659.21875 339.242188 L 652.398438 339.242188 C 653.019531 345.46875 653.410156 351.761719 653.5625 358.113281 Z M 568.746094 158.433594 C 534.515625 131.164062 493.332031 112.257812 448.273438 104.796875 C 444.894531 111.691406 437.828125 116.449219 429.628906 116.449219 L 426.269531 116.449219 C 480.585938 121.078125 529.976562 143.226562 568.746094 177.21875 Z M 158.820312 328.980469 C 165.40625 282.628906 184.816406 240.347656 213.355469 205.867188 L 194.992188 205.867188 C 171.113281 237.484375 154.226562 274.667969 146.597656 315.121094 C 152.324219 317.808594 156.78125 322.816406 158.820312 328.980469 Z M 150.746094 370.09375 L 150.746094 393.339844 C 150.746094 398.609375 148.769531 403.402344 145.535156 407.0625 C 153.441406 455.125 174.378906 498.792969 204.613281 534.324219 L 212.128906 534.324219 C 216.179688 534.324219 219.980469 535.394531 223.285156 537.269531 L 225.050781 535.503906 C 183.773438 492.21875 157.925781 434.113281 156.402344 370.09375 Z M 285.832031 598.5 C 307.378906 609.46875 330.640625 617.539062 355.105469 622.238281 C 359.324219 616.679688 365.90625 613.085938 373.324219 613.085938 L 398.988281 613.085938 L 398.988281 612.601562 C 359.824219 611.671875 322.882812 601.636719 290.179688 584.546875 Z M 410.976562 612.601562 L 410.976562 613.085938 L 436.640625 613.085938 C 444.058594 613.085938 450.640625 616.679688 454.859375 622.238281 C 479.402344 617.523438 502.738281 609.417969 524.339844 598.398438 L 519.992188 584.4375 C 487.238281 601.59375 450.222656 611.671875 410.976562 612.601562 Z M 150.746094 358.113281 L 156.402344 358.113281 C 156.554688 351.761719 156.945312 345.46875 157.566406 339.242188 L 150.746094 339.242188 Z M 231.828125 545.675781 C 233.949219 549.242188 235.195312 553.414062 235.195312 557.894531 L 235.195312 560.613281 L 230.339844 560.613281 C 236.597656 566.171875 243.121094 571.441406 249.890625 576.390625 L 254.4375 561.800781 C 247.144531 556.238281 240.15625 550.292969 233.527344 543.976562 Z M 220.8125 358.113281 L 235.125 358.113281 C 236.601562 315.777344 253.640625 277.332031 280.695312 248.332031 L 270.578125 238.21875 C 240.941406 269.816406 222.296875 311.835938 220.8125 358.113281 Z M 574.835938 370.09375 C 573.375 412.054688 556.625 450.191406 529.992188 479.101562 L 530.671875 481.277344 L 539.386719 489.992188 C 569.023438 458.390625 587.664062 416.375 589.152344 370.09375 Z M 410.976562 548.214844 C 443.628906 547.167969 474.164062 537.59375 500.417969 521.644531 L 496.019531 507.53125 C 471.265625 523.292969 442.175781 532.816406 410.976562 533.90625 Z M 289.171875 239.859375 C 318.183594 212.8125 356.636719 195.78125 398.988281 194.304688 L 398.988281 179.992188 C 352.695312 181.480469 310.664062 200.117188 279.050781 229.742188 Z M 220.8125 370.09375 C 222.296875 416.375 240.941406 458.390625 270.578125 489.992188 L 279.644531 480.929688 L 280.152344 479.296875 C 253.414062 450.363281 236.59375 412.148438 235.125 370.097656 L 220.8125 370.097656 Z M 309.75 521.765625 C 335.957031 537.644531 366.417969 547.171875 398.988281 548.214844 L 398.988281 533.90625 C 367.875 532.820312 338.859375 523.34375 314.144531 507.660156 Z M 530.910156 229.742188 C 499.300781 200.117188 457.269531 181.480469 410.976562 179.992188 L 410.976562 194.304688 C 453.324219 195.777344 491.78125 212.8125 520.792969 239.859375 Z M 589.152344 358.113281 C 587.664062 311.835938 569.023438 269.816406 539.386719 238.214844 L 529.269531 248.332031 C 556.320312 277.332031 573.359375 315.777344 574.835938 358.113281 Z M 445.511719 362.148438 C 445.511719 339.808594 427.328125 321.632812 404.980469 321.632812 C 382.632812 321.632812 364.453125 339.808594 364.453125 362.148438 C 364.453125 384.488281 382.632812 402.664062 404.980469 402.664062 C 427.328125 402.664062 445.511719 384.488281 445.511719 362.148438 Z M 445.511719 362.148438 " fill-opacity="1" fill-rule="nonzero"/></svg>